<svg width="144" height="144" viewBox="0 0 144 144" fill="none" xmlns="http://www.w3.org/2000/svg">
<g opacity="0.4">
<rect x="0.25" y="0.25" width="3.5" height="3.5" rx="1.75" fill="white"/>
<rect x="0.25" y="0.25" width="3.5" height="3.5" rx="1.75" stroke="white" stroke-width="0.5"/>
<rect x="20.25" y="0.25" width="3.5" height="3.5" rx="1.75" fill="white"/>
<rect x="20.25" y="0.25" width="3.5" height="3.5" rx="1.75" stroke="white" stroke-width="0.5"/>
<rect x="40.25" y="0.25" width="3.5" height="3.5" rx="1.75" fill="white"/>
<rect x="40.25" y="0.25" width="3.5" height="3.5" rx="1.75" stroke="white" stroke-width="0.5"/>
<rect x="60.25" y="0.25" width="3.5" height="3.5" rx="1.75" fill="white"/>
<rect x="60.25" y="0.25" width="3.5" height="3.5" rx="1.75" stroke="white" stroke-width="0.5"/>
<rect x="80.25" y="0.25" width="3.5" height="3.5" rx="1.75" fill="white"/>
<rect x="80.25" y="0.25" width="3.5" height="3.5" rx="1.75" stroke="white" stroke-width="0.5"/>
<rect x="100.25" y="0.25" width="3.5" height="3.5" rx="1.75" fill="white"/>
<rect x="100.25" y="0.25" width="3.5" height="3.5" rx="1.75" stroke="white" stroke-width="0.5"/>
<rect x="120.25" y="0.25" width="3.5" height="3.5" rx="1.75" fill="white"/>
<rect x="120.25" y="0.25" width="3.5" height="3.5" rx="1.75" stroke="white" stroke-width="0.5"/>
<rect x="140.25" y="0.25" width="3.5" height="3.5" rx="1.75" fill="white"/>
<rect x="140.25" y="0.25" width="3.5" height="3.5" rx="1.75" stroke="white" stroke-width="0.5"/>
<rect x="0.25" y="20.25" width="3.5" height="3.5" rx="1.75" fill="white"/>
<rect x="0.25" y="20.25" width="3.5" height="3.5" rx="1.75" stroke="white" stroke-width="0.5"/>
<rect x="20.25" y="20.25" width="3.5" height="3.5" rx="1.75" fill="white"/>
<rect x="20.25" y="20.25" width="3.5" height="3.5" rx="1.75" stroke="white" stroke-width="0.5"/>
<rect x="40.25" y="20.25" width="3.5" height="3.5" rx="1.75" fill="white"/>
<rect x="40.25" y="20.25" width="3.5" height="3.5" rx="1.75" stroke="white" stroke-width="0.5"/>
<rect x="60.25" y="20.25" width="3.5" height="3.5" rx="1.75" fill="white"/>
<rect x="60.25" y="20.25" width="3.5" height="3.5" rx="1.75" stroke="white" stroke-width="0.5"/>
<rect x="80.25" y="20.25" width="3.5" height="3.5" rx="1.75" fill="white"/>
<rect x="80.25" y="20.25" width="3.5" height="3.5" rx="1.75" stroke="white" stroke-width="0.5"/>
<rect x="100.25" y="20.25" width="3.5" height="3.5" rx="1.75" fill="white"/>
<rect x="100.25" y="20.25" width="3.5" height="3.5" rx="1.75" stroke="white" stroke-width="0.5"/>
<rect x="120.25" y="20.25" width="3.5" height="3.5" rx="1.75" fill="white"/>
<rect x="120.25" y="20.25" width="3.5" height="3.5" rx="1.75" stroke="white" stroke-width="0.5"/>
<rect x="140.25" y="20.25" width="3.5" height="3.5" rx="1.75" fill="white"/>
<rect x="140.25" y="20.25" width="3.5" height="3.5" rx="1.75" stroke="white" stroke-width="0.5"/>
<rect x="0.25" y="40.25" width="3.5" height="3.5" rx="1.75" fill="white"/>
<rect x="0.25" y="40.25" width="3.5" height="3.5" rx="1.75" stroke="white" stroke-width="0.5"/>
<rect x="20.25" y="40.25" width="3.5" height="3.5" rx="1.75" fill="white"/>
<rect x="20.25" y="40.25" width="3.5" height="3.5" rx="1.75" stroke="white" stroke-width="0.5"/>
<rect x="40.25" y="40.25" width="3.5" height="3.5" rx="1.75" fill="white"/>
<rect x="40.25" y="40.25" width="3.5" height="3.5" rx="1.75" stroke="white" stroke-width="0.5"/>
<rect x="60.25" y="40.25" width="3.5" height="3.5" rx="1.75" fill="white"/>
<rect x="60.25" y="40.25" width="3.5" height="3.5" rx="1.75" stroke="white" stroke-width="0.5"/>
<rect x="80.25" y="40.25" width="3.5" height="3.5" rx="1.75" fill="white"/>
<rect x="80.25" y="40.25" width="3.5" height="3.5" rx="1.75" stroke="white" stroke-width="0.5"/>
<rect x="100.25" y="40.25" width="3.5" height="3.5" rx="1.75" fill="white"/>
<rect x="100.25" y="40.25" width="3.5" height="3.5" rx="1.75" stroke="white" stroke-width="0.5"/>
<rect x="120.25" y="40.25" width="3.5" height="3.5" rx="1.75" fill="white"/>
<rect x="120.25" y="40.25" width="3.5" height="3.5" rx="1.75" stroke="white" stroke-width="0.5"/>
<rect x="140.25" y="40.25" width="3.5" height="3.5" rx="1.75" fill="white"/>
<rect x="140.25" y="40.25" width="3.5" height="3.5" rx="1.75" stroke="white" stroke-width="0.5"/>
<rect x="0.25" y="60.25" width="3.5" height="3.5" rx="1.75" fill="white"/>
<rect x="0.25" y="60.25" width="3.5" height="3.5" rx="1.75" stroke="white" stroke-width="0.5"/>
<rect x="20.25" y="60.25" width="3.5" height="3.5" rx="1.75" fill="white"/>
<rect x="20.25" y="60.25" width="3.5" height="3.5" rx="1.75" stroke="white" stroke-width="0.5"/>
<rect x="40.25" y="60.25" width="3.5" height="3.5" rx="1.75" fill="white"/>
<rect x="40.25" y="60.25" width="3.5" height="3.5" rx="1.75" stroke="white" stroke-width="0.5"/>
<rect x="60.25" y="60.25" width="3.5" height="3.5" rx="1.75" fill="white"/>
<rect x="60.25" y="60.25" width="3.5" height="3.5" rx="1.75" stroke="white" stroke-width="0.5"/>
<rect x="80.25" y="60.25" width="3.5" height="3.5" rx="1.75" fill="white"/>
<rect x="80.25" y="60.25" width="3.5" height="3.5" rx="1.75" stroke="white" stroke-width="0.5"/>
<rect x="100.25" y="60.25" width="3.5" height="3.5" rx="1.75" fill="white"/>
<rect x="100.25" y="60.25" width="3.5" height="3.5" rx="1.75" stroke="white" stroke-width="0.5"/>
<rect x="120.25" y="60.25" width="3.5" height="3.5" rx="1.75" fill="white"/>
<rect x="120.25" y="60.25" width="3.5" height="3.5" rx="1.75" stroke="white" stroke-width="0.5"/>
<rect x="140.25" y="60.25" width="3.5" height="3.5" rx="1.75" fill="white"/>
<rect x="140.25" y="60.25" width="3.5" height="3.5" rx="1.75" stroke="white" stroke-width="0.5"/>
<rect x="0.25" y="80.25" width="3.5" height="3.5" rx="1.75" fill="white"/>
<rect x="0.25" y="80.25" width="3.5" height="3.5" rx="1.75" stroke="white" stroke-width="0.5"/>
<rect x="20.25" y="80.25" width="3.5" height="3.5" rx="1.75" fill="white"/>
<rect x="20.25" y="80.25" width="3.5" height="3.5" rx="1.75" stroke="white" stroke-width="0.5"/>
<rect x="40.25" y="80.25" width="3.5" height="3.5" rx="1.75" fill="white"/>
<rect x="40.25" y="80.25" width="3.5" height="3.5" rx="1.75" stroke="white" stroke-width="0.5"/>
<rect x="60.25" y="80.25" width="3.5" height="3.5" rx="1.75" fill="white"/>
<rect x="60.25" y="80.25" width="3.5" height="3.5" rx="1.75" stroke="white" stroke-width="0.5"/>
<rect x="80.25" y="80.25" width="3.5" height="3.5" rx="1.75" fill="white"/>
<rect x="80.25" y="80.25" width="3.5" height="3.5" rx="1.75" stroke="white" stroke-width="0.5"/>
<rect x="100.25" y="80.25" width="3.5" height="3.5" rx="1.75" fill="white"/>
<rect x="100.25" y="80.25" width="3.5" height="3.5" rx="1.75" stroke="white" stroke-width="0.5"/>
<rect x="120.25" y="80.25" width="3.5" height="3.5" rx="1.75" fill="white"/>
<rect x="120.25" y="80.25" width="3.5" height="3.5" rx="1.75" stroke="white" stroke-width="0.5"/>
<rect x="140.25" y="80.25" width="3.5" height="3.5" rx="1.75" fill="white"/>
<rect x="140.25" y="80.25" width="3.5" height="3.5" rx="1.75" stroke="white" stroke-width="0.5"/>
<rect x="0.25" y="100.25" width="3.5" height="3.5" rx="1.75" fill="white"/>
<rect x="0.25" y="100.25" width="3.5" height="3.5" rx="1.75" stroke="white" stroke-width="0.5"/>
<rect x="20.25" y="100.25" width="3.5" height="3.5" rx="1.75" fill="white"/>
<rect x="20.25" y="100.25" width="3.5" height="3.5" rx="1.75" stroke="white" stroke-width="0.5"/>
<rect x="40.25" y="100.25" width="3.5" height="3.5" rx="1.75" fill="white"/>
<rect x="40.25" y="100.25" width="3.5" height="3.5" rx="1.75" stroke="white" stroke-width="0.5"/>
<rect x="60.25" y="100.25" width="3.5" height="3.5" rx="1.75" fill="white"/>
<rect x="60.25" y="100.25" width="3.5" height="3.5" rx="1.75" stroke="white" stroke-width="0.5"/>
<rect x="80.25" y="100.25" width="3.5" height="3.5" rx="1.75" fill="white"/>
<rect x="80.25" y="100.25" width="3.5" height="3.5" rx="1.75" stroke="white" stroke-width="0.5"/>
<rect x="100.25" y="100.25" width="3.5" height="3.5" rx="1.75" fill="white"/>
<rect x="100.25" y="100.25" width="3.5" height="3.5" rx="1.75" stroke="white" stroke-width="0.5"/>
<rect x="120.25" y="100.25" width="3.5" height="3.5" rx="1.75" fill="white"/>
<rect x="120.25" y="100.25" width="3.5" height="3.5" rx="1.75" stroke="white" stroke-width="0.5"/>
<rect x="140.25" y="100.25" width="3.5" height="3.5" rx="1.75" fill="white"/>
<rect x="140.25" y="100.25" width="3.5" height="3.5" rx="1.75" stroke="white" stroke-width="0.5"/>
<rect x="0.25" y="120.25" width="3.5" height="3.5" rx="1.75" fill="white"/>
<rect x="0.25" y="120.25" width="3.5" height="3.5" rx="1.75" stroke="white" stroke-width="0.5"/>
<rect x="20.25" y="120.25" width="3.5" height="3.5" rx="1.75" fill="white"/>
<rect x="20.25" y="120.25" width="3.5" height="3.5" rx="1.75" stroke="white" stroke-width="0.5"/>
<rect x="40.25" y="120.25" width="3.5" height="3.5" rx="1.75" fill="white"/>
<rect x="40.25" y="120.25" width="3.5" height="3.5" rx="1.75" stroke="white" stroke-width="0.5"/>
<rect x="60.25" y="120.25" width="3.5" height="3.5" rx="1.75" fill="white"/>
<rect x="60.25" y="120.25" width="3.5" height="3.5" rx="1.75" stroke="white" stroke-width="0.5"/>
<rect x="80.25" y="120.25" width="3.5" height="3.5" rx="1.75" fill="white"/>
<rect x="80.25" y="120.25" width="3.5" height="3.5" rx="1.75" stroke="white" stroke-width="0.5"/>
<rect x="100.25" y="120.25" width="3.5" height="3.5" rx="1.75" fill="white"/>
<rect x="100.25" y="120.25" width="3.5" height="3.5" rx="1.75" stroke="white" stroke-width="0.5"/>
<rect x="120.25" y="120.25" width="3.5" height="3.5" rx="1.75" fill="white"/>
<rect x="120.25" y="120.25" width="3.5" height="3.5" rx="1.75" stroke="white" stroke-width="0.5"/>
<rect x="140.25" y="120.25" width="3.5" height="3.5" rx="1.75" fill="white"/>
<rect x="140.25" y="120.25" width="3.5" height="3.5" rx="1.75" stroke="white" stroke-width="0.5"/>
<rect x="0.25" y="140.25" width="3.5" height="3.5" rx="1.75" fill="white"/>
<rect x="0.25" y="140.25" width="3.5" height="3.5" rx="1.75" stroke="white" stroke-width="0.5"/>
<rect x="20.25" y="140.25" width="3.5" height="3.5" rx="1.75" fill="white"/>
<rect x="20.25" y="140.25" width="3.5" height="3.5" rx="1.75" stroke="white" stroke-width="0.5"/>
<rect x="40.25" y="140.25" width="3.5" height="3.5" rx="1.75" fill="white"/>
<rect x="40.25" y="140.25" width="3.5" height="3.5" rx="1.75" stroke="white" stroke-width="0.5"/>
<rect x="60.25" y="140.25" width="3.5" height="3.5" rx="1.75" fill="white"/>
<rect x="60.25" y="140.25" width="3.5" height="3.5" rx="1.75" stroke="white" stroke-width="0.5"/>
<rect x="80.25" y="140.25" width="3.5" height="3.5" rx="1.75" fill="white"/>
<rect x="80.25" y="140.25" width="3.5" height="3.5" rx="1.75" stroke="white" stroke-width="0.5"/>
<rect x="100.25" y="140.25" width="3.5" height="3.5" rx="1.75" fill="white"/>
<rect x="100.25" y="140.25" width="3.5" height="3.5" rx="1.75" stroke="white" stroke-width="0.5"/>
<rect x="120.25" y="140.25" width="3.5" height="3.5" rx="1.75" fill="white"/>
<rect x="120.25" y="140.25" width="3.5" height="3.5" rx="1.75" stroke="white" stroke-width="0.5"/>
<rect x="140.25" y="140.25" width="3.5" height="3.5" rx="1.75" fill="white"/>
<rect x="140.25" y="140.25" width="3.5" height="3.5" rx="1.75" stroke="white" stroke-width="0.5"/>
</g>
</svg>
